<?xml version="1.0" encoding="utf-8"?>
<!-- Generator: Adobe Illustrator 18.1.1, SVG Export Plug-In . SVG Version: 6.00 Build 0)  -->
<svg version="1.1" id="Layer_1" xmlns="http://www.w3.org/2000/svg" xmlns:xlink="http://www.w3.org/1999/xlink" x="0px" y="0px"
	 viewBox="0 0 512 512" enable-background="new 0 0 512 512" xml:space="preserve">
<path fill="#47401C" d="M53.3,387.9h9.1l-4.6-12.3L53.3,387.9z M59.6,368.8l11.9,30.8h-4.8l-3.1-8.3H52.1l-3,8.3h-4l11.6-30.1
	L59.6,368.8z"/>
<polygon fill="#47401C" points="78.8,369.2 95.5,391.8 95.5,369.2 99.1,369.2 99.1,399.6 95.9,399.6 79.2,377.3 79.2,399.6 
	75.6,399.6 75.6,369.2 "/>
<path fill="#47401C" d="M127.3,373.8c-2.3-1.2-4.8-1.7-7.4-1.7c-1.7,0-3.2,0.3-4.6,1c-1.3,0.6-2.5,1.5-3.4,2.6
	c-0.9,1.1-1.6,2.4-2.1,3.9c-0.5,1.5-0.7,3.1-0.7,4.8c0,2.3,0.3,4.3,0.9,5.9c0.6,1.6,1.5,2.8,2.5,3.8c1,1,2.1,1.7,3.3,2.1
	c1.2,0.4,2.3,0.6,3.5,0.6c0.8,0,1.8-0.1,2.8-0.3c1-0.2,2-0.4,2.9-0.8v-9.2h-5.1l1.1-3.3h8.3v14.3c-0.5,0.4-1.1,0.7-1.9,1
	c-0.7,0.3-1.5,0.6-2.4,0.9c-0.9,0.3-1.8,0.5-2.7,0.6c-1,0.2-1.9,0.2-2.8,0.2c-2.3,0-4.4-0.4-6.3-1.1c-1.9-0.7-3.5-1.7-4.8-3.1
	c-1.3-1.3-2.3-3-3-5c-0.7-2-1.1-4.2-1.1-6.7c0-2,0.3-3.9,1-5.8c0.7-1.9,1.6-3.6,2.9-5.1c1.3-1.5,2.9-2.7,4.7-3.6
	c1.9-0.9,4-1.4,6.5-1.4c1.6,0,3.1,0.1,4.5,0.4c1.5,0.3,2.7,0.7,3.6,1.2L127.3,373.8z"/>
<path fill="#47401C" d="M157,373.8c-2.3-1.2-4.8-1.7-7.4-1.7c-1.7,0-3.3,0.3-4.6,1c-1.3,0.6-2.5,1.5-3.4,2.6
	c-0.9,1.1-1.6,2.4-2.1,3.9c-0.5,1.5-0.7,3.1-0.7,4.8c0,2.3,0.3,4.3,0.9,5.9c0.6,1.6,1.4,2.8,2.4,3.8c1,1,2.1,1.7,3.3,2.1
	c1.2,0.4,2.3,0.6,3.5,0.6c0.8,0,1.8-0.1,2.8-0.3c1-0.2,2-0.4,2.9-0.8v-9.2h-5.1l1.1-3.3h8.3v14.3c-0.5,0.4-1.1,0.7-1.9,1
	c-0.7,0.3-1.5,0.6-2.4,0.9c-0.9,0.3-1.8,0.5-2.7,0.6c-1,0.2-1.9,0.2-2.8,0.2c-2.3,0-4.4-0.4-6.3-1.1c-1.9-0.7-3.5-1.7-4.8-3.1
	c-1.3-1.3-2.3-3-3-5c-0.7-2-1.1-4.2-1.1-6.7c0-2,0.3-3.9,1-5.8c0.7-1.9,1.6-3.6,2.9-5.1c1.3-1.5,2.9-2.7,4.7-3.6
	c1.9-0.9,4-1.4,6.5-1.4c1.6,0,3.1,0.1,4.5,0.4c1.5,0.3,2.7,0.7,3.6,1.2L157,373.8z"/>
<path fill="#47401C" d="M169.6,384.4h4.2c2.3,0,4.1-0.4,5.2-1.3c1.2-0.9,1.7-2.4,1.7-4.6c0-2.2-0.6-3.7-1.8-4.6
	c-1.2-0.9-2.9-1.3-5.3-1.3h-4.1V384.4z M172.7,369.1c2.1,0,3.8,0.1,5.3,0.4c1.4,0.3,2.7,0.7,3.7,1.3c1.3,0.8,2.2,1.8,2.8,3
	c0.6,1.3,0.9,2.7,0.9,4.4c0,2-0.4,3.8-1.3,5.3c-0.9,1.6-2.1,2.7-3.9,3.4l7,12.7h-4.8l-6.5-11.8h-6.3v11.8h-4.2v-30.5H172.7z"/>
<path fill="#47401C" d="M197,387.9h9.1l-4.6-12.3L197,387.9z M203.2,368.8l11.9,30.8h-4.8l-3.1-8.3h-11.6l-3,8.3h-4l11.7-30.1
	L203.2,368.8z"/>
<polygon fill="#47401C" points="236.5,369.2 235.5,372.5 223.5,372.5 223.5,383.1 234.1,383.1 233.3,386.4 223.5,386.4 223.5,396.3 
	237.2,396.3 236.4,399.6 219.2,399.6 219.2,369.2 "/>
<polygon fill="#47401C" points="245.3,369.2 262,391.8 262,369.2 265.6,369.2 265.6,399.6 262.4,399.6 245.7,377.3 245.7,399.6 
	242.1,399.6 242.1,369.2 "/>
<rect x="272.6" y="369.2" fill="#47401C" width="4.3" height="30.4"/>
<path fill="#47401C" d="M340.9,363.3c2.3,1.5,3.5,3.1,3.5,4.7c0,0.6-0.2,1.3-0.6,1.9c-1.1,1.7-4,3-8.9,4.1
	c-3.5,0.7-9.3,1.6-17.6,2.5c-3.6,0.4-6.3,0.8-8.2,1c0.3,10.4,0.9,18,1.9,22.7c0.1,0.4,0,0.8-0.3,1.1c-0.3,0.3-0.6,0.4-1.1,0.4
	c-0.7,0-1.1-0.3-1.2-1c-0.2-1.2-0.6-3.9-1-8.2c-0.5-5-0.8-9.4-0.9-13.2c-1.6,0.9-2.8,1.4-3.7,1.4c-1.3,0-2-0.7-2-2.1
	c0-0.2,0-0.4,0-0.6c0.2-1.2,2.1-2.1,5.6-2.7c0-3.8,0.3-5.9,1-6.4c0.2-0.1,0.4-0.2,0.6-0.2c0.8,0,1.3,0.5,1.3,1.4c0,0.2,0,0.3,0,0.4
	c-0.1,0.5-0.2,1.9-0.2,4.3c1.8-0.2,4.5-0.5,7.9-0.9c6.4-0.7,10.9-1.3,13.7-1.8c7.4-1.3,11.1-2.7,11.1-4.2c0-0.8-1.1-1.8-3.3-3
	c-1.4-0.8-2.7-1.3-3.8-1.7c-10.5-3.6-28.1-5.3-52.8-5.3c-13.2,0-23.3,0.5-30,1.5c0.9,0,1.3,0.5,1.3,1.3c0,0.4-0.2,0.7-0.5,0.9
	c-0.6,0.4-1.6,0.6-3,0.6c-1.4,0-2.5-0.2-3.3-0.6c-0.8-0.4-1.2-0.9-1.2-1.6c0-0.7,0.4-1.3,1.1-1.8c1.3-0.9,5.2-1.6,11.9-2.1
	c6.5-0.6,14.2-0.8,23-0.8c10.9,0,21,0.4,30.3,1.3c10.7,1,18.7,2.4,24.2,4.2C337.5,361.4,339.3,362.3,340.9,363.3"/>
<path fill="#47401C" d="M445.3,401.4c0.9,0,2.2-0.4,3.9-1.3c1.9-1,2.9-1.8,2.9-2.7c0-0.1,0-0.2-0.1-0.3c-2.1-2.1-5.3-3.5-9.6-4.4
	c-3.3-0.5-6.6-1-9.9-1.6c-3.1-0.7-4.6-1.9-4.6-3.8c0-2.3,2.3-4,7.1-5.2c3.2-0.8,6.5-1.1,9.8-1.1c2,0,4,0.2,6.1,0.6
	c3.1,0.6,4.6,1.6,4.6,2.8c0,0.8-0.4,1.2-1.2,1.2c-0.4,0-0.7-0.1-0.9-0.3c-1.5-1.2-4.3-1.8-8.5-1.8c-3.4,0-6.7,0.4-9.8,1.2
	c-3.2,0.8-4.8,1.6-4.8,2.5c0,0.7,1,1.2,2.9,1.5c0.4,0.1,1.6,0.2,3.6,0.4c3.8,0.4,6.9,1,9,1.6c3.3,1,5.9,2.5,7.8,4.4
	c0.6,0.6,0.9,1.3,0.9,2c0,1.5-1.2,3-3.6,4.5c-2.2,1.3-4.2,2-5.9,2c-1.1,0-2.1-0.2-3-0.7c-1.1-0.6-1.7-1.4-1.7-2.4
	c0-0.6,0.2-1.2,0.6-1.9c0.4-0.7,0.8-1.1,1.3-1.1c0.8,0,1.1,0.2,1.1,0.7c0,0.2-0.1,0.5-0.2,0.9c-0.1,0.4-0.2,0.7-0.2,0.9
	C443.1,401,443.9,401.4,445.3,401.4"/>
<path fill="#47401C" d="M443.3,399.3l-2.2-0.7c5.9-9.5,38-23.5,44.9-24.2c0.4-0.1,1.5-0.2,1.3,0.6c-0.1,0.4-0.5,0.4-0.7,0.6
	c-0.3,0.2-0.4,0.6-0.7,0.8c-0.5,0.3-1.6,0.3-2.2,0.3c-2.9,0.4-5.8,1.2-8.6,2.2C458.6,385.4,444,396.5,443.3,399.3"/>
<path fill="#47401C" d="M404.2,384.2c0.2-1.2,0.9-2.4,1.6-3.3c1-1.3,3-0.9,2.4,1c-0.1,0.4-0.4,0.8-0.6,1.2c-0.4,0.6-1,1.2-1.5,1.6
	C405.4,385.3,404,385.5,404.2,384.2 M427.9,389.9c-0.9,0.7-1.6,1.6-2.6,2.2c-0.5,0.3-1.2,0.5-1.7,0.1c-0.4-0.3-0.4-0.8-0.3-1.3
	c0.2-1.4,1-2.7,1.3-4.1c0.3-1.1,0.3-2.3-0.1-3.4c-0.4-1.4-1.3-2-2.3-3c-0.3-0.3-0.6-0.6-1-0.8c-0.5-0.2-1.1,0-1.5,0.2
	c-0.2,0.1-1.9,1.1-1.8,1.4c0.2,0.8,0.3,1.2-0.1,1.9c-1.4,2.4-3.5,4.4-5.6,6.1c-0.3,0.2-0.6,0.6-0.4,0.9c-0.3-0.2-0.7,0-1,0.1
	c-1.1,0.6-2.5,0.9-3.7,0.6c-1.3-0.3-2.4-1.6-2.3-2.9c0.1-1.2,1.2-2.1,2.2-3c1.4-1.3,2.6-3,3.2-4.8c0.2-0.6,0.4-1.3,0.3-1.9
	c-0.1-0.7-0.5-1.3-1.1-1.5c-0.9-0.3-1.9,0.3-2.6,0.9c-2.3,2.1-3.8,4.9-4.4,7.9c-0.1,0.5-0.2,1.1-0.4,1.5c-0.2,0.3-0.5,0.6-0.7,0.8
	c-0.4,0.3-0.8,0.7-1.1,1c-0.3,0.3-0.6,0.5-0.7,0.9c0,0.1-0.1,0.2-0.1,0.3l0,0c-0.3-0.2-0.5-0.1-0.8-0.1c-0.7,0-1.4-0.6-1.8-1.2
	c-0.5-0.9-0.6-1.9-0.9-2.8c-0.3-0.9-1.1-1.9-2.1-1.9c-0.4,0-0.9,0.2-1.2,0.4c-2.8,1.5-4.3,4.5-6.7,6.5c0,0-0.1,0.1-0.2,0.1
	c0,0-0.1,0-0.1-0.1c-0.5-0.4-0.6-1-0.6-1.6c0.1-1.2,0.8-2.4,1.2-3.5c0.4-1.3,0.8-2.6,1-3.9c0.1-0.5,0.2-1-0.1-1.5
	c-0.3-0.5-1.1-0.7-1.7-0.4c-0.6,0.2-1.1,0.7-1.5,1.2c-2.6,2.8-5.2,5.6-7.8,8.4c-0.2,0.2-0.3,0.4-0.3,0.6c0-0.1,0-0.1-0.1-0.2
	c-0.7,0.5-1.4,1.1-2.1,1.6c-0.5,0.4-1.2,0.8-1.8,0.6c-0.4-0.2-0.6-0.6-0.7-1c-0.3-1.3,0.3-3,0.5-4.2c0.3-1.4,0.6-2.9,1-4.3
	c0.3-1.2,0.6-2.4,1-3.6c0.2-0.6,0.3-1.2,0.5-1.8c0.1-0.3,0.2-1.2,0.5-1.4c0.4-0.2,1.1-0.3,1.5-0.3c0.1,0,0.2,0,0.3-0.1
	c0.1-0.1,0.1-0.2,0.1-0.3c0.2-1.2-0.2-2.2-0.4-3.3c-0.3-1.2,0.7-2.1,0.6-3.3c0-0.1-0.1-0.3-0.2-0.4c-0.2-0.2-0.6,0-0.8,0.2
	c-1.2,1.2-1.1,3.3-2.7,4.1c-0.6,0.3-1.3,0.3-1.9,0.3c-1.2,0-2.4,0-3.6-0.1c-0.8,0-2.4-0.5-2.7,0.5c-0.1,0.4-0.4,1.3-0.2,1.7
	c0.2,0.4,1,0.4,1.5,0.4c1.2,0.2,2.5,0.2,3.8,0c0.3-0.1,0.7-0.1,1-0.1c0.3,0,0.7,0.2,0.8,0.6c0.1,0.3,0,0.6,0,0.8
	c-0.4,1.3-1.3,2.6-2,3.7c-0.8,1.3-1.6,2.5-2.5,3.7c-1.3,1.8-2.8,3.3-4.4,4.8c-0.2,0.2-0.4,0.4-0.5,0.7c-0.1,0.3-0.1,0.6,0,0.8
	c-0.1-0.2-0.2-0.4-0.3-0.5c-0.9,0.8-1.6,1.9-2.8,2.3c-0.8,0.3-1.7,0.2-1.9-0.8c-0.1-1,0.4-2.2,0.8-3.1c0.6-1.4,0.7-2.2,0.7-2.5
	c0-1.1-0.1-2.1-0.4-2.9c-0.3-0.7-0.7-1.3-1.2-1.7c-0.1-0.1-0.2-0.1-0.3-0.2l-0.1,0l-0.1-0.1c-0.3-0.3-0.7-0.7-1.1-1
	c-0.2-0.2-0.5-0.3-0.9-0.3c-0.2,0-0.7,0.1-1.6,0.7c-0.7,0.5-1,0.8-1.2,1l0.2,1.1l-0.1,0.2c-1.3,3-4.1,4.7-6.1,7.1
	c-0.4,0.5-0.8,1.1-1.4,1.4c-1.9,0.9-3.1-1.2-3.2-2.7c0-0.6,0.5-3.4-0.7-3.1c-0.7,0.2-1.3,0.8-1.9,1.3c-1.3,1.1-2.6,2.2-3.8,3.4
	c-0.7,0.6-2.6,2.6-3.7,1.9c-0.4-0.2-0.5-0.8-0.4-1.3c0.3-0.8,1-1.3,1.6-1.9c0.9-1,1.8-2,2.7-3c1.9-2,3.8-3.9,5.9-5.7
	c0.6-0.5,1.8-1.4,0.6-1.8c-1.1-0.3-2.3,0.8-3.1,1.4c-3,2.3-5.8,4.7-8.5,7.3c-0.7,0.6-2,1.1-1.9,2.2c0,0.7,0.6,1.2,0.6,1.9
	c0,0.7-0.4,1.3-0.8,1.9c-0.4,0.6-0.7,1.4-0.3,2.1c0.3,0.5,0.9,0.6,1.4,0.6c0.1,0,0.1,0,0.2,0c0.6-0.1,1.1-0.4,1.6-0.8
	c0.7-0.5,7.3-6.1,7.2-6.2c0.6,0.6,0.9,1.1,1,1.9c0.1,0.6,0.1,1.3,0.5,1.9c0.4,0.7,1.3,1.2,2.2,1.2c2.3,0,4.2-2.5,5.7-4
	c1.1-1.1,2.2-2.2,3.2-3.3c1-1,1.9-2.2,3.1-2.9c0.9-0.5,2,0.6,2.4,1.3c0.4,0.8,0.4,1.7,0.4,2.6c-0.1,2.2-0.7,4.5-1.8,6.5
	c-0.2,0.3-0.4,0.7-0.3,1.1c0.2,1,1.5,0.4,2,0.1c3.3-2,6.3-4.3,9.1-7c0.6-0.6,4-5.4,4.6-3.3c0.1,0.4,0,0.9-0.2,1.3
	c-0.9,2.7-1.4,5.6-1.4,8.5c0,0.6,0,1.2,0.5,1.6c0.4,0.3,0.9,0.3,1.3,0.1c0.4-0.2,0.8-0.5,1.1-0.9c0-0.2,0.8-0.8,1-1
	c0.4-0.4,0.8-0.8,1.2-1.2c0.7-0.7,1.5-1.4,2.2-2.2c1.2-1.2,2.4-2.4,3.6-3.5c0.7-0.7,2.2-2.6,3.4-1.8c0.7,0.5,0.5,1.5,0.3,2.3
	c-0.5,1.6-1,3.2-1.6,4.9c-0.3,1-0.6,2-0.5,3.1c0.9,0.3,1.7-0.4,2.3-1c2.4-2.4,4.4-5.3,7.4-7c0.4-0.2,0.9-0.5,1.4-0.3
	c0.3,0.1,0.5,0.3,0.7,0.5c0.7,0.7,1.2,1.6,1.7,2.4c0.6,1,1.2,2.2,2.3,2.2c1.1,0,1.8-1.3,2.8-1.8c0,0,0,0,0-0.1c0,0,0.1,0.1,0.1,0.1
	c0.4-0.4,0.7-0.7,1.2-1c1.9-1,2.1,1.7,3,2.7c0.7,0.8,1.8,1,2.9,0.9c2.5-0.2,4.4-1.7,6-3.4c2-2,3.9-4,5.9-5.9
	c0.3-0.3,0.6-0.6,0.9-0.8c1.5-0.7,2.6,0.9,2.9,2.1c0.3,1.3,0.1,2.7-0.2,4c-0.4,1.6-1,3.1-1.7,4.7c-0.1,0.3-0.3,0.8,0,1
	c0.6,0.5,1.5,0,2-0.3c1.3-0.8,2.5-1.5,3.8-2.4c0.6-0.4,1.2-0.8,1.8-1.3c0.3-0.2,0.8-0.8,1-0.9C428.9,389.9,428.1,390.3,427.9,389.9"
	/>
<g>
	<path fill="#47401C" d="M272.1,206.7v-60c3.2-7.6,8-13.6,14.6-18c6.6-4.4,13.7-7.1,21.3-8.2c7.6-1.1,15-0.6,22.2,1.4
		c7.2,2,13.2,5.4,17.9,10.2c3.8,3.8,6.5,8.8,8,15.1c1.6,6.3,2.1,12.8,1.7,19.4c-0.5,6.6-1.8,12.9-4,18.9c-2.2,6-5,10.7-8.5,14.2
		c-6.6,6.9-15,11.4-25.3,13.5c-10.2,2-19.9,3.2-29,3.5c-3.8,0.3-7.2,0.4-10.4,0.4h-8.5V206.7z M240,208.8v60
		c-3.2,7.6-8.1,13.6-14.7,18c-6.6,4.4-13.7,7.1-21.3,8.3c-7.6,1.1-15,0.6-22.2-1.4c-7.2-2.1-13.2-5.4-17.9-10.2
		c-3.8-3.8-6.4-8.8-8-15.1c-1.6-6.3-2.1-12.7-1.7-19.3c0.5-6.6,1.8-12.9,4-18.9c2.2-6,5-10.7,8.5-14.1c6.6-7,15-11.4,25.3-13.5
		c10.2-2,19.9-3.2,29.1-3.5c3.7-0.3,7.2-0.5,10.4-0.5h8.5V208.8z M240.9,184.3c-2.8-0.3-5.4-0.6-7.5-0.7c-2.2-0.2-3.8-0.2-4.7-0.2
		c-7.9,0.6-15.7,1.3-23.4,2.1c-7.7,0.8-15.3,2.3-22.9,4.5c-15.4,4.4-28.7,11.3-39.9,20.6c-11.2,9.3-17.3,22.4-18.2,39.4
		c-1,13.2,0.4,24,4,32.4c3.6,8.3,8.7,14.9,15.1,19.6c6.5,4.7,14,7.8,22.4,9.2c8.5,1.4,17.2,1.6,26,0.7c9.1-0.7,17.9-2.8,26.2-6.6
		c8.4-3.8,15.7-8.5,22-14.2v0.1c0.5-0.8,1-1.5,1.2-1.9l0.4-0.4c-0.1,2.4-0.1,4.8-0.2,7.2c-0.3,8-0.6,15.2-0.9,21.6
		c-0.4,8.1,0.3,15.7,2.3,22.7l29.3-25.2c-0.4-5.7-0.7-11.9-0.8-18.7c-0.2-8-0.2-16.2-0.2-24.6v-24.2h-0.1v-12.9h0.2
		c0-1.2-0.1-2.4,0-3.5c2.8,0.3,5.4,0.5,7.6,0.7c2.2,0.2,3.8,0.2,4.7,0.2c7.9-0.6,15.7-1.3,23.4-2.1c7.7-0.8,15.4-2.3,22.9-4.5
		c15.4-4.4,28.7-11.3,39.9-20.6c11.2-9.3,17.2-22.4,18.2-39.5c1-13.2-0.4-24-4-32.3c-3.6-8.4-8.6-14.9-15.1-19.6
		c-6.5-4.7-14-7.8-22.4-9.2c-8.5-1.4-17.2-1.6-26-0.7c-9.1,0.6-17.9,2.8-26.2,6.6c-2.6,1.2-5.1,2.6-7.5,4
		c-8.1,5.5-12.8,8.7-19.6,18.3c-0.1,0.3-0.2,0.5-0.4,0.8c0-0.1-0.1-0.1-0.1-0.2c-1,1.5-2.2,3.2-3.3,5c-1.9-3.8-4.3-7.2-7.1-10.3
		c-8.2-8.8-18.8-15.3-31.9-19.4c-13.1-4.1-26.3-5.9-39.7-5.4c-13.4,0.5-25.9,3.3-37.6,8.5c-11.6,5.2-20.2,12.5-25.5,22l26.5,20.3
		c0.6-11.4,4.7-20.8,12.3-28.4c7.6-7.5,15.9-11.3,25-11.3c14.2,0,25.2,2.1,33.1,6.4c7.9,4.2,13.5,9.7,17,16.5
		c3.5,6.8,5.4,14.2,5.7,22.4c0.2,3.9,0.2,7.8,0.2,11.6c0,3.9-0.1,7.7-0.2,11.6C240.9,183.3,240.9,183.8,240.9,184.3"/>
	<path fill="#A38528" d="M376.2,207.5c-7,7.3-18.2,13.2-24.1,16c6.7,7.1,12.5,17.5,14,28.2c1.3,12.3-0.9,22.5-6.6,30.8
		c-31.5,35.2-79.9-4.8-84.3-11.9c-0.8,8.1-0.6,8.8-0.5,15.4c8.4,7.7,51.4,37.7,99.3,11.2C403.7,278.2,401.3,244.4,376.2,207.5"/>
	<path fill="#A38528" d="M166.3,190.7c-9.5-5-16.6-19.2-18.7-32.1c-11.5-7.9-27.7-21-27.7-21s-14.6,31.2,16.1,70.8
		C150.4,197.5,160.4,192.8,166.3,190.7"/>
</g>
<path fill="#A38528" d="M290.8,396.6v-3.2l-4.4,1.6L290.8,396.6z M283.9,394.4l10.9-4.2v1.7l-3,1.1v4.1l3,1.1v1.4l-10.7-4.1
	L283.9,394.4z"/>
<polygon fill="#A38528" points="284.1,387.5 292.1,381.6 284.1,381.6 284.1,380.3 294.9,380.3 294.9,381.5 287,387.4 294.9,387.4 
	294.9,388.7 284.1,388.7 "/>
<path fill="#A38528" d="M293.7,376.4v-1.4c0-0.6-0.1-1.2-0.2-1.7c-0.1-0.5-0.4-1-0.7-1.4c-0.4-0.4-0.8-0.6-1.4-0.8
	c-0.5-0.2-1.2-0.2-2-0.2c-0.6,0-1.2,0.1-1.7,0.3c-0.5,0.2-1,0.4-1.4,0.7c-0.4,0.3-0.7,0.8-0.9,1.3c-0.2,0.6-0.3,1.2-0.3,1.9v1.3
	H293.7z M284.1,375.2c0-1,0.1-1.8,0.2-2.3c0.1-0.6,0.3-1.1,0.6-1.5c0.4-0.7,1.1-1.3,1.9-1.7c0.8-0.4,1.7-0.6,2.8-0.6
	c1.1,0,2,0.2,2.8,0.6c0.8,0.4,1.4,1,1.9,1.7c0.2,0.4,0.4,0.9,0.6,1.5c0.1,0.6,0.2,1.2,0.2,1.8v3.2h-10.8V375.2z"/>
</svg>
