<?xml version="1.0" encoding="utf-8"?>
<!-- Generator: Adobe Illustrator 18.0.0, SVG Export Plug-In . SVG Version: 6.00 Build 0)  -->
<svg version="1.1" id="Layer_1" xmlns="http://www.w3.org/2000/svg" xmlns:xlink="http://www.w3.org/1999/xlink" x="0px" y="0px"
	 viewBox="0 0 223.8 102.2" enable-background="new 0 0 223.8 102.2" xml:space="preserve">
<g>
	<g>
		<path fill="#47411C" d="M111.1,34.3V20c0.8-1.8,1.9-3.2,3.5-4.3c1.6-1,3.3-1.7,5.1-2c1.8-0.3,3.6-0.1,5.3,0.3
			c1.7,0.5,3.2,1.3,4.3,2.4c0.9,0.9,1.5,2.1,1.9,3.6c0.4,1.5,0.5,3,0.4,4.6c-0.1,1.6-0.4,3.1-1,4.5c-0.5,1.4-1.2,2.6-2,3.4
			c-1.6,1.6-3.6,2.7-6,3.2c-2.4,0.5-4.7,0.8-6.9,0.8c-0.9,0.1-1.7,0.1-2.5,0.1h-2V34.3z M103.4,34.8v14.3c-0.8,1.8-1.9,3.2-3.5,4.3
			c-1.6,1-3.3,1.7-5.1,2c-1.8,0.3-3.6,0.2-5.3-0.3c-1.7-0.5-3.2-1.3-4.3-2.4c-0.9-0.9-1.5-2.1-1.9-3.6c-0.4-1.5-0.5-3-0.4-4.6
			c0.1-1.6,0.4-3.1,1-4.5c0.5-1.4,1.2-2.5,2-3.4c1.6-1.7,3.6-2.7,6-3.2c2.4-0.5,4.7-0.8,6.9-0.8c0.9-0.1,1.7-0.1,2.5-0.1h2V34.8z
			 M103.7,28.9c-0.7-0.1-1.3-0.1-1.8-0.2c-0.5,0-0.9-0.1-1.1-0.1c-1.9,0.2-3.7,0.3-5.6,0.5c-1.8,0.2-3.7,0.5-5.5,1.1
			c-3.7,1.1-6.9,2.7-9.5,4.9c-2.7,2.2-4.1,5.3-4.3,9.4c-0.2,3.2,0.1,5.7,1,7.7c0.9,2,2.1,3.6,3.6,4.7c1.5,1.1,3.3,1.9,5.4,2.2
			c2,0.3,4.1,0.4,6.2,0.2c2.2-0.2,4.3-0.7,6.3-1.6c2-0.9,3.7-2,5.2-3.4v0c0.1-0.2,0.2-0.3,0.3-0.4l0.1-0.1c0,0.6,0,1.1-0.1,1.7
			c-0.1,1.9-0.1,3.6-0.2,5.1c-0.1,1.9,0.1,3.8,0.5,5.4l7-6c-0.1-1.4-0.2-2.8-0.2-4.5c0-1.9-0.1-3.9-0.1-5.9v-5.8h0V41h0.1
			c0-0.3,0-0.6,0-0.8c0.7,0.1,1.3,0.1,1.8,0.2c0.5,0,0.9,0.1,1.1,0.1c1.9-0.2,3.7-0.3,5.6-0.5c1.8-0.2,3.7-0.5,5.5-1.1
			c3.7-1.1,6.9-2.7,9.5-4.9c2.7-2.2,4.1-5.4,4.3-9.4c0.2-3.2-0.1-5.7-1-7.7c-0.9-2-2.1-3.6-3.6-4.7c-1.5-1.1-3.3-1.9-5.4-2.2
			c-2-0.3-4.1-0.4-6.2-0.2c-2.2,0.1-4.3,0.7-6.3,1.6c-0.6,0.3-1.2,0.6-1.8,0.9c-1.9,1.3-3.1,2.1-4.7,4.4c0,0.1-0.1,0.1-0.1,0.2
			c0,0,0,0,0,0c-0.2,0.4-0.5,0.8-0.8,1.2c-0.5-0.9-1-1.7-1.7-2.5c-2-2.1-4.5-3.6-7.6-4.6c-3.1-1-6.3-1.4-9.5-1.3
			c-3.2,0.1-6.2,0.8-9,2c-2.8,1.2-4.8,3-6.1,5.2l6.3,4.8c0.2-2.7,1.1-5,2.9-6.8c1.8-1.8,3.8-2.7,6-2.7c3.4,0,6,0.5,7.9,1.5
			c1.9,1,3.2,2.3,4.1,3.9c0.8,1.6,1.3,3.4,1.3,5.3c0,0.9,0.1,1.8,0.1,2.8c0,0.9,0,1.8,0,2.8C103.7,28.7,103.7,28.8,103.7,28.9"/>
		<path fill="#47411C" d="M10.4,86.8h4.5l-2.3-6L10.4,86.8z M13.5,77.4l5.9,15.2H17l-1.5-4.1H9.8l-1.5,4.1h-2l5.7-14.8L13.5,77.4z"
			/>
		<polygon fill="#47411C" points="22.9,77.5 31.1,88.7 31.1,77.5 32.9,77.5 32.9,92.5 31.4,92.5 23.1,81.5 23.1,92.5 21.4,92.5 
			21.4,77.5 		"/>
		<path fill="#47411C" d="M46.8,79.8c-1.1-0.6-2.3-0.9-3.6-0.9c-0.8,0-1.6,0.2-2.3,0.5c-0.7,0.3-1.2,0.7-1.7,1.3
			c-0.4,0.5-0.8,1.2-1,1.9c-0.2,0.7-0.4,1.5-0.4,2.3c0,1.1,0.2,2.1,0.5,2.9c0.3,0.8,0.7,1.4,1.2,1.9c0.5,0.5,1,0.8,1.6,1
			c0.6,0.2,1.1,0.3,1.7,0.3c0.4,0,0.9,0,1.4-0.1c0.5-0.1,1-0.2,1.4-0.4V86h-2.5l0.5-1.6h4.1v7c-0.3,0.2-0.6,0.3-0.9,0.5
			c-0.4,0.2-0.7,0.3-1.2,0.4c-0.4,0.1-0.9,0.2-1.3,0.3c-0.5,0.1-0.9,0.1-1.4,0.1c-1.1,0-2.2-0.2-3.1-0.5c-0.9-0.4-1.7-0.9-2.3-1.5
			c-0.6-0.7-1.1-1.5-1.5-2.4c-0.4-1-0.5-2.1-0.5-3.3c0-1,0.2-1.9,0.5-2.9c0.3-0.9,0.8-1.8,1.4-2.5c0.6-0.7,1.4-1.3,2.3-1.8
			c0.9-0.4,2-0.7,3.2-0.7c0.8,0,1.5,0.1,2.2,0.2c0.7,0.1,1.3,0.3,1.8,0.6L46.8,79.8z"/>
		<path fill="#47411C" d="M61.4,79.8C60.2,79.2,59,79,57.7,79c-0.8,0-1.6,0.2-2.3,0.5c-0.7,0.3-1.2,0.7-1.7,1.3
			c-0.5,0.5-0.8,1.2-1,1.9c-0.2,0.7-0.4,1.5-0.4,2.3c0,1.1,0.2,2.1,0.5,2.9c0.3,0.8,0.7,1.4,1.2,1.9c0.5,0.5,1,0.8,1.6,1
			c0.6,0.2,1.1,0.3,1.7,0.3c0.4,0,0.9,0,1.4-0.1c0.5-0.1,1-0.2,1.4-0.4V86h-2.5l0.5-1.6h4.1v7c-0.3,0.2-0.6,0.3-0.9,0.5
			c-0.4,0.2-0.7,0.3-1.2,0.4c-0.4,0.1-0.9,0.2-1.3,0.3c-0.5,0.1-0.9,0.1-1.4,0.1c-1.1,0-2.2-0.2-3.1-0.5c-0.9-0.4-1.7-0.9-2.4-1.5
			c-0.6-0.7-1.1-1.5-1.5-2.4c-0.4-1-0.5-2.1-0.5-3.3c0-1,0.2-1.9,0.5-2.9c0.3-0.9,0.8-1.8,1.4-2.5c0.6-0.7,1.4-1.3,2.3-1.8
			c0.9-0.4,2-0.7,3.2-0.7c0.8,0,1.5,0.1,2.2,0.2c0.7,0.1,1.3,0.3,1.8,0.6L61.4,79.8z"/>
		<path fill="#47411C" d="M67.6,85h2.1c1.1,0,2-0.2,2.6-0.6c0.6-0.4,0.8-1.2,0.8-2.3c0-1.1-0.3-1.8-0.9-2.3
			c-0.6-0.4-1.4-0.7-2.6-0.7h-2V85z M69.1,77.5c1,0,1.9,0.1,2.6,0.2c0.7,0.1,1.3,0.3,1.8,0.6c0.6,0.4,1.1,0.9,1.4,1.5
			c0.3,0.6,0.4,1.3,0.4,2.1c0,1-0.2,1.9-0.6,2.6c-0.4,0.8-1.1,1.3-1.9,1.7l3.5,6.2h-2.4l-3.2-5.8h-3.1v5.8h-2.1v-15H69.1z"/>
		<path fill="#47411C" d="M81,86.8h4.5l-2.3-6L81,86.8z M84.1,77.4L90,92.5h-2.3l-1.5-4.1h-5.7l-1.5,4.1h-2l5.7-14.8L84.1,77.4z"/>
		<polygon fill="#47411C" points="100.5,77.5 100,79.2 94.1,79.2 94.1,84.4 99.3,84.4 98.9,86 94.1,86 94.1,90.9 100.8,90.9 
			100.4,92.5 92,92.5 92,77.5 		"/>
		<polygon fill="#47411C" points="104.8,77.5 113,88.7 113,77.5 114.8,77.5 114.8,92.5 113.2,92.5 105,81.5 105,92.5 103.2,92.5 
			103.2,77.5 		"/>
		<rect x="118.2" y="77.5" fill="#47411C" width="2.1" height="15"/>
		<path fill="#47411C" d="M151.8,74.7c1.2,0.8,1.7,1.5,1.7,2.3c0,0.3-0.1,0.6-0.3,0.9c-0.5,0.8-2,1.5-4.4,2
			c-1.7,0.4-4.6,0.8-8.6,1.2c-1.8,0.2-3.1,0.4-4,0.5c0.1,5.1,0.5,8.8,0.9,11.2c0,0.2,0,0.4-0.1,0.5c-0.1,0.1-0.3,0.2-0.5,0.2
			c-0.3,0-0.5-0.2-0.6-0.5c-0.1-0.6-0.3-1.9-0.5-4c-0.2-2.5-0.4-4.6-0.5-6.5c-0.8,0.5-1.4,0.7-1.8,0.7c-0.7,0-1-0.3-1-1
			c0-0.1,0-0.2,0-0.3c0.1-0.6,1-1,2.7-1.3c0-1.9,0.2-2.9,0.5-3.1c0.1-0.1,0.2-0.1,0.3-0.1c0.4,0,0.6,0.2,0.6,0.7c0,0.1,0,0.2,0,0.2
			c-0.1,0.2-0.1,0.9-0.1,2.1c0.9-0.1,2.2-0.3,3.9-0.5c3.1-0.4,5.4-0.6,6.7-0.9c3.6-0.6,5.4-1.3,5.4-2.1c0-0.4-0.5-0.9-1.6-1.5
			c-0.7-0.4-1.3-0.6-1.9-0.8c-5.2-1.8-13.8-2.6-26-2.6c-6.5,0-11.4,0.2-14.8,0.7c0.4,0,0.6,0.2,0.6,0.6c0,0.2-0.1,0.4-0.3,0.5
			c-0.3,0.2-0.8,0.3-1.5,0.3c-0.7,0-1.2-0.1-1.6-0.3c-0.4-0.2-0.6-0.5-0.6-0.8c0-0.3,0.2-0.6,0.5-0.9c0.6-0.4,2.6-0.8,5.8-1
			c3.2-0.3,7-0.4,11.3-0.4c5.4,0,10.3,0.2,14.9,0.6c5.3,0.5,9.2,1.2,11.9,2.1C150.1,73.7,151,74.1,151.8,74.7"/>
		<path fill="#47411C" d="M203.2,93.4c0.4,0,1.1-0.2,1.9-0.6c0.9-0.5,1.4-0.9,1.4-1.3c0,0,0-0.1,0-0.1c-1-1-2.6-1.7-4.7-2.2
			c-1.6-0.3-3.2-0.5-4.9-0.8c-1.5-0.3-2.3-1-2.3-1.9c0-1.1,1.2-2,3.5-2.5c1.6-0.4,3.2-0.6,4.8-0.6c1,0,2,0.1,3,0.3
			c1.5,0.3,2.3,0.8,2.3,1.4c0,0.4-0.2,0.6-0.6,0.6c-0.2,0-0.3-0.1-0.5-0.2c-0.7-0.6-2.1-0.9-4.2-0.9c-1.7,0-3.3,0.2-4.8,0.6
			c-1.6,0.4-2.3,0.8-2.3,1.3c0,0.3,0.5,0.6,1.4,0.7c0.2,0,0.8,0.1,1.8,0.2c1.9,0.2,3.4,0.5,4.4,0.8c1.6,0.5,2.9,1.2,3.9,2.2
			c0.3,0.3,0.5,0.6,0.5,1c0,0.8-0.6,1.5-1.8,2.2c-1.1,0.7-2,1-2.9,1c-0.5,0-1-0.1-1.5-0.4c-0.5-0.3-0.8-0.7-0.8-1.2
			c0-0.3,0.1-0.6,0.3-0.9c0.2-0.3,0.4-0.5,0.7-0.5c0.4,0,0.6,0.1,0.6,0.3c0,0.1,0,0.2-0.1,0.4c-0.1,0.2-0.1,0.4-0.1,0.5
			C202.1,93.2,202.4,93.4,203.2,93.4"/>
		<path fill="#47411C" d="M202.2,92.4l-1.1-0.3c2.9-4.7,18.7-11.6,22.1-11.9c0.2,0,0.7-0.1,0.7,0.3c0,0.2-0.2,0.2-0.4,0.3
			c-0.1,0.1-0.2,0.3-0.3,0.4c-0.3,0.2-0.8,0.1-1.1,0.2c-1.4,0.2-2.9,0.6-4.2,1.1C209.7,85.5,202.5,91,202.2,92.4"/>
		<path fill="#47411C" d="M182.9,84.9c0.1-0.6,0.4-1.2,0.8-1.6c0.5-0.6,1.5-0.5,1.2,0.5c-0.1,0.2-0.2,0.4-0.3,0.6
			c-0.2,0.3-0.5,0.6-0.7,0.8C183.5,85.5,182.8,85.6,182.9,84.9 M194.6,87.7c-0.5,0.3-0.8,0.8-1.3,1.1c-0.3,0.1-0.6,0.2-0.8,0.1
			c-0.2-0.1-0.2-0.4-0.2-0.6c0.1-0.7,0.5-1.3,0.6-2c0.1-0.5,0.1-1.2,0-1.7c-0.2-0.7-0.7-1-1.2-1.5c-0.2-0.2-0.3-0.3-0.5-0.4
			c-0.2-0.1-0.5,0-0.8,0.1c-0.1,0.1-0.9,0.5-0.9,0.7c0.1,0.4,0.1,0.6-0.1,0.9c-0.7,1.2-1.7,2.2-2.8,3c-0.1,0.1-0.3,0.3-0.2,0.4
			c-0.1-0.1-0.3,0-0.5,0.1c-0.5,0.3-1.2,0.4-1.8,0.3c-0.6-0.2-1.2-0.8-1.1-1.4c0.1-0.6,0.6-1,1.1-1.5c0.7-0.7,1.3-1.5,1.6-2.4
			c0.1-0.3,0.2-0.6,0.1-1c0-0.3-0.2-0.6-0.5-0.8c-0.4-0.2-0.9,0.1-1.3,0.4c-1.1,1-1.9,2.4-2.1,3.9c0,0.3-0.1,0.5-0.2,0.7
			c-0.1,0.2-0.2,0.3-0.4,0.4c-0.2,0.2-0.4,0.3-0.6,0.5c-0.1,0.1-0.3,0.3-0.4,0.4c0,0.1,0,0.1,0,0.2l0,0c-0.1-0.1-0.2,0-0.4,0
			c-0.3,0-0.7-0.3-0.9-0.6c-0.2-0.4-0.3-0.9-0.5-1.4c-0.2-0.5-0.5-0.9-1-0.9c-0.2,0-0.4,0.1-0.6,0.2c-1.4,0.7-2.1,2.2-3.3,3.2
			c0,0,0,0-0.1,0c0,0,0,0-0.1,0c-0.2-0.2-0.3-0.5-0.3-0.8c0-0.6,0.4-1.2,0.6-1.7c0.2-0.6,0.4-1.3,0.5-1.9c0-0.2,0.1-0.5,0-0.7
			c-0.2-0.3-0.5-0.3-0.8-0.2c-0.3,0.1-0.5,0.3-0.7,0.6c-1.3,1.4-2.6,2.8-3.8,4.1c-0.1,0.1-0.1,0.2-0.1,0.3c0,0,0-0.1,0-0.1
			c-0.3,0.3-0.7,0.5-1,0.8c-0.3,0.2-0.6,0.4-0.9,0.3c-0.2-0.1-0.3-0.3-0.3-0.5c-0.1-0.6,0.1-1.5,0.3-2.1c0.1-0.7,0.3-1.4,0.5-2.1
			c0.2-0.6,0.3-1.2,0.5-1.8c0.1-0.3,0.2-0.6,0.3-0.9c0-0.2,0.1-0.6,0.2-0.7c0.2-0.1,0.5-0.1,0.7-0.2c0,0,0.1,0,0.1-0.1
			c0,0,0-0.1,0.1-0.1c0.1-0.6-0.1-1.1-0.2-1.6c-0.1-0.6,0.4-1.1,0.3-1.6c0-0.1,0-0.1-0.1-0.2c-0.1-0.1-0.3,0-0.4,0.1
			c-0.6,0.6-0.5,1.6-1.3,2c-0.3,0.1-0.6,0.1-0.9,0.1c-0.6,0-1.2,0-1.8,0c-0.4,0-1.2-0.3-1.3,0.3c0,0.2-0.2,0.6-0.1,0.8
			c0.1,0.2,0.5,0.2,0.7,0.2c0.6,0.1,1.2,0.1,1.9,0c0.2,0,0.3-0.1,0.5,0c0.2,0,0.3,0.1,0.4,0.3c0.1,0.1,0,0.3,0,0.4
			c-0.2,0.6-0.6,1.3-1,1.8c-0.4,0.6-0.8,1.2-1.2,1.8c-0.7,0.9-1.4,1.6-2.2,2.4c-0.1,0.1-0.2,0.2-0.3,0.3c-0.1,0.1-0.1,0.3,0,0.4
			c0-0.1-0.1-0.2-0.2-0.3c-0.4,0.4-0.8,0.9-1.4,1.1c-0.4,0.2-0.9,0.1-0.9-0.4c-0.1-0.5,0.2-1.1,0.4-1.5c0.3-0.7,0.3-1.1,0.3-1.2
			c0-0.6-0.1-1-0.2-1.4c-0.1-0.4-0.3-0.6-0.6-0.8c0,0-0.1-0.1-0.2-0.1l0,0l0,0c-0.2-0.2-0.3-0.3-0.5-0.5c-0.1-0.1-0.3-0.2-0.5-0.2
			c-0.1,0-0.3,0-0.8,0.4c-0.3,0.2-0.5,0.4-0.6,0.5l0.1,0.5l0,0.1c-0.6,1.5-2,2.3-3,3.5c-0.2,0.3-0.4,0.5-0.7,0.7
			c-0.9,0.4-1.5-0.6-1.6-1.4c0-0.3,0.3-1.7-0.3-1.5c-0.4,0.1-0.7,0.4-0.9,0.6c-0.6,0.6-1.3,1.1-1.9,1.7c-0.3,0.3-1.3,1.3-1.8,0.9
			c-0.2-0.1-0.3-0.4-0.2-0.6c0.1-0.4,0.5-0.6,0.8-0.9c0.4-0.5,0.9-1,1.3-1.5c0.9-1,1.9-1.9,2.9-2.8c0.3-0.2,0.9-0.7,0.3-0.9
			c-0.5-0.1-1.1,0.4-1.5,0.7c-1.5,1.1-2.8,2.3-4.2,3.6c-0.3,0.3-1,0.5-1,1.1c0,0.3,0.3,0.6,0.3,0.9c0,0.4-0.2,0.7-0.4,1
			c-0.2,0.3-0.3,0.7-0.1,1c0.1,0.2,0.4,0.3,0.7,0.3c0,0,0.1,0,0.1,0c0.3-0.1,0.5-0.2,0.8-0.4c0.3-0.2,3.6-3,3.5-3.1
			c0.3,0.3,0.4,0.5,0.5,1c0,0.3,0.1,0.7,0.2,0.9c0.2,0.4,0.6,0.6,1.1,0.6c1.2,0,2.1-1.2,2.8-2c0.5-0.5,1.1-1.1,1.6-1.6
			c0.5-0.5,0.9-1.1,1.5-1.4c0.4-0.2,1,0.3,1.2,0.6c0.2,0.4,0.2,0.8,0.2,1.3c-0.1,1.1-0.4,2.2-0.9,3.2c-0.1,0.2-0.2,0.4-0.2,0.5
			c0.1,0.5,0.7,0.2,1,0.1c1.6-1,3.1-2.1,4.5-3.4c0.3-0.3,2-2.7,2.3-1.6c0.1,0.2,0,0.4-0.1,0.6c-0.4,1.3-0.7,2.8-0.7,4.2
			c0,0.3,0,0.6,0.2,0.8c0.2,0.2,0.4,0.1,0.7,0.1c0.2-0.1,0.4-0.3,0.6-0.4c0-0.1,0.4-0.4,0.5-0.5c0.2-0.2,0.4-0.4,0.6-0.6
			c0.4-0.4,0.7-0.7,1.1-1.1c0.6-0.6,1.2-1.2,1.8-1.7c0.4-0.4,1.1-1.3,1.7-0.9c0.3,0.2,0.2,0.8,0.1,1.2c-0.3,0.8-0.5,1.6-0.8,2.4
			c-0.2,0.5-0.3,1-0.2,1.5c0.4,0.1,0.8-0.2,1.2-0.5c1.2-1.2,2.2-2.6,3.6-3.5c0.2-0.1,0.5-0.2,0.7-0.1c0.1,0,0.2,0.2,0.3,0.3
			c0.3,0.4,0.6,0.8,0.8,1.2c0.3,0.5,0.6,1.1,1.2,1.1c0.6,0,0.9-0.6,1.4-0.9c0,0,0,0,0,0c0,0,0,0,0.1,0c0.2-0.2,0.4-0.4,0.6-0.5
			c0.9-0.5,1,0.9,1.5,1.3c0.3,0.4,0.9,0.5,1.4,0.4c1.2-0.1,2.2-0.8,3-1.7c1-1,1.9-1.9,2.9-2.9c0.1-0.1,0.3-0.3,0.5-0.4
			c0.7-0.4,1.3,0.4,1.4,1c0.1,0.6,0,1.3-0.1,2c-0.2,0.8-0.5,1.5-0.8,2.3c-0.1,0.2-0.1,0.4,0,0.5c0.3,0.2,0.7,0,1-0.2
			c0.6-0.4,1.3-0.8,1.9-1.2c0.3-0.2,0.6-0.4,0.9-0.6c0.1-0.1,0.4-0.4,0.5-0.5C195,87.7,194.7,87.9,194.6,87.7"/>
	</g>
	<g>
		<path fill="#A38528" d="M135.9,34.5c-1.7,1.7-4.3,3.1-5.7,3.8c1.6,1.7,3,4.2,3.3,6.7c0.3,2.9-0.2,5.4-1.6,7.3
			c-7.5,8.4-19.1-1.1-20.1-2.8c-0.2,1.9-0.1,2.1-0.1,3.7c2,1.8,12.2,9,23.7,2.7C142.5,51.4,141.9,43.3,135.9,34.5"/>
		<path fill="#A38528" d="M85.9,30.5c-2.3-1.2-4-4.6-4.5-7.7c-2.7-1.9-6.6-5-6.6-5s-3.5,7.4,3.8,16.9C82.1,32.1,84.5,31,85.9,30.5"
			/>
		<path fill="#A38528" d="M127.1,91v-1.6l-2.1,0.8L127.1,91z M123.8,89.9l5.4-2.1v0.8l-1.5,0.5v2l1.5,0.5v0.7l-5.3-2L123.8,89.9z"/>
		<polygon fill="#A38528" points="123.9,86.6 127.8,83.7 123.9,83.7 123.9,83 129.2,83 129.2,83.6 125.3,86.5 129.2,86.5 
			129.2,87.1 123.9,87.1 		"/>
		<path fill="#A38528" d="M128.6,81.1v-0.7c0-0.3,0-0.6-0.1-0.8c-0.1-0.3-0.2-0.5-0.4-0.7c-0.2-0.2-0.4-0.3-0.7-0.4
			c-0.3-0.1-0.6-0.1-1-0.1c-0.3,0-0.6,0-0.8,0.1c-0.3,0.1-0.5,0.2-0.7,0.4c-0.2,0.2-0.3,0.4-0.4,0.6c-0.1,0.3-0.1,0.6-0.1,0.9v0.7
			H128.6z M123.9,80.5c0-0.5,0-0.9,0.1-1.1c0.1-0.3,0.2-0.5,0.3-0.7c0.2-0.4,0.5-0.6,0.9-0.8c0.4-0.2,0.9-0.3,1.4-0.3
			c0.5,0,1,0.1,1.4,0.3c0.4,0.2,0.7,0.5,0.9,0.8c0.1,0.2,0.2,0.4,0.3,0.7c0.1,0.3,0.1,0.6,0.1,0.9v1.6h-5.3V80.5z"/>
	</g>
</g>
</svg>
