<?xml version="1.0" encoding="utf-8"?>
<!-- Generator: Adobe Illustrator 18.0.0, SVG Export Plug-In . SVG Version: 6.00 Build 0)  -->
<svg version="1.1" id="Layer_1" xmlns="http://www.w3.org/2000/svg" xmlns:xlink="http://www.w3.org/1999/xlink" x="0px" y="0px"
	 viewBox="0 0 225 46.7" enable-background="new 0 0 225 46.7" xml:space="preserve">
<g>
	<g>
		<path fill="#9E7B2D" d="M142.9,28.3l1.6-0.6v1.2L142.9,28.3z M142,28.1l0.1,0.4l4,1.6v-0.5l-1.1-0.4v-1.6l1.1-0.4v-0.6L142,28.1z"
			/>
		<path fill="#9E7B2D" d="M142.9,28.3l1.6-0.6v1.2L142.9,28.3z M142,28.1l0.1,0.4l4,1.6v-0.5l-1.1-0.4v-1.6l1.1-0.4v-0.6L142,28.1z"
			/>
		<polygon fill="#9E7B2D" points="142,22.8 142,23.3 145.1,23.3 142,25.5 142,25.9 146.1,25.9 146.1,25.4 143.1,25.4 146.1,23.2 
			146.1,22.8 		"/>
		<path fill="#9E7B2D" d="M142.5,20.8c0-0.3,0-0.5,0.1-0.7c0.1-0.2,0.2-0.4,0.3-0.5c0.1-0.1,0.3-0.2,0.5-0.3
			c0.2-0.1,0.4-0.1,0.6-0.1c0.3,0,0.5,0,0.7,0.1c0.2,0.1,0.4,0.2,0.5,0.3c0.1,0.2,0.2,0.3,0.3,0.5c0,0.2,0.1,0.4,0.1,0.6v0.5h-3.2
			V20.8z M143,18.8c-0.3,0.1-0.5,0.4-0.7,0.6c-0.1,0.2-0.2,0.3-0.2,0.6c-0.1,0.2-0.1,0.5-0.1,0.9v1h4.1v-1.2c0-0.2,0-0.5-0.1-0.7
			c0-0.2-0.1-0.4-0.2-0.6c-0.2-0.3-0.4-0.5-0.7-0.6c-0.3-0.2-0.7-0.2-1.1-0.2C143.7,18.6,143.3,18.6,143,18.8"/>
		<g>
			<path fill="#47411C" d="M54.9,25.7h3.4L56.6,21L54.9,25.7z M57.3,18.4l4.5,11.6H60l-1.2-3.1h-4.4l-1.1,3.1h-1.5l4.4-11.4
				L57.3,18.4z"/>
			<polygon fill="#47411C" points="64.5,18.6 70.8,27.1 70.8,18.6 72.2,18.6 72.2,30.1 71,30.1 64.7,21.6 64.7,30.1 63.3,30.1 
				63.3,18.6 			"/>
			<path fill="#47411C" d="M82.8,20.3C82,19.9,81,19.6,80,19.6c-0.6,0-1.2,0.1-1.7,0.4c-0.5,0.2-0.9,0.6-1.3,1
				c-0.3,0.4-0.6,0.9-0.8,1.5c-0.2,0.6-0.3,1.2-0.3,1.8c0,0.9,0.1,1.6,0.4,2.2c0.2,0.6,0.5,1.1,0.9,1.4c0.4,0.4,0.8,0.6,1.2,0.8
				c0.4,0.2,0.9,0.2,1.3,0.2c0.3,0,0.7,0,1.1-0.1c0.4-0.1,0.8-0.2,1.1-0.3v-3.5H80l0.4-1.2h3.1v5.4c-0.2,0.1-0.4,0.3-0.7,0.4
				c-0.3,0.1-0.6,0.2-0.9,0.3c-0.3,0.1-0.7,0.2-1,0.2c-0.4,0.1-0.7,0.1-1.1,0.1c-0.9,0-1.7-0.1-2.4-0.4c-0.7-0.3-1.3-0.7-1.8-1.2
				c-0.5-0.5-0.9-1.1-1.1-1.9c-0.3-0.7-0.4-1.6-0.4-2.5c0-0.7,0.1-1.5,0.4-2.2c0.2-0.7,0.6-1.4,1.1-1.9c0.5-0.6,1.1-1,1.8-1.4
				c0.7-0.3,1.5-0.5,2.5-0.5c0.6,0,1.2,0.1,1.7,0.2c0.6,0.1,1,0.3,1.4,0.5L82.8,20.3z"/>
			<path fill="#47411C" d="M94,20.3c-0.9-0.4-1.8-0.7-2.8-0.7c-0.6,0-1.2,0.1-1.7,0.4c-0.5,0.2-0.9,0.6-1.3,1
				c-0.3,0.4-0.6,0.9-0.8,1.5c-0.2,0.6-0.3,1.2-0.3,1.8c0,0.9,0.1,1.6,0.4,2.2c0.2,0.6,0.5,1.1,0.9,1.4c0.4,0.4,0.8,0.6,1.2,0.8
				c0.4,0.2,0.9,0.2,1.3,0.2c0.3,0,0.7,0,1.1-0.1c0.4-0.1,0.8-0.2,1.1-0.3v-3.5h-1.9l0.4-1.2h3.1v5.4c-0.2,0.1-0.4,0.3-0.7,0.4
				c-0.3,0.1-0.6,0.2-0.9,0.3c-0.3,0.1-0.7,0.2-1,0.2c-0.4,0.1-0.7,0.1-1.1,0.1c-0.9,0-1.7-0.1-2.4-0.4c-0.7-0.3-1.3-0.7-1.8-1.2
				c-0.5-0.5-0.9-1.1-1.1-1.9c-0.3-0.7-0.4-1.6-0.4-2.5c0-0.7,0.1-1.5,0.4-2.2c0.3-0.7,0.6-1.4,1.1-1.9c0.5-0.6,1.1-1,1.8-1.4
				c0.7-0.3,1.5-0.5,2.5-0.5c0.6,0,1.2,0.1,1.7,0.2c0.6,0.1,1,0.3,1.4,0.5L94,20.3z"/>
			<path fill="#47411C" d="M98.8,24.3h1.6c0.9,0,1.5-0.2,2-0.5c0.4-0.3,0.6-0.9,0.6-1.7c0-0.8-0.2-1.4-0.7-1.7
				c-0.4-0.3-1.1-0.5-2-0.5h-1.6V24.3z M100,18.5c0.8,0,1.4,0,2,0.2c0.5,0.1,1,0.3,1.4,0.5c0.5,0.3,0.8,0.7,1.1,1.1
				c0.2,0.5,0.3,1,0.3,1.6c0,0.8-0.2,1.4-0.5,2c-0.3,0.6-0.8,1-1.5,1.3l2.7,4.8h-1.8l-2.5-4.5h-2.4v4.5h-1.6V18.5H100z"/>
			<path fill="#47411C" d="M109.1,25.7h3.4l-1.7-4.6L109.1,25.7z M111.5,18.4l4.5,11.6h-1.8l-1.2-3.1h-4.4l-1.1,3.1H106l4.4-11.4
				L111.5,18.4z"/>
			<polygon fill="#47411C" points="124.1,18.6 123.7,19.8 119.2,19.8 119.2,23.8 123.2,23.8 122.9,25.1 119.2,25.1 119.2,28.8 
				124.4,28.8 124,30.1 117.6,30.1 117.6,18.6 			"/>
			<polygon fill="#47411C" points="127.4,18.6 133.7,27.1 133.7,18.6 135.1,18.6 135.1,30.1 133.9,30.1 127.6,21.6 127.6,30.1 
				126.2,30.1 126.2,18.6 			"/>
			<rect x="137.7" y="18.6" fill="#47411C" width="1.6" height="11.5"/>
			<path fill="#47411C" d="M163.5,16.3c0.9,0.6,1.3,1.2,1.3,1.8c0,0.2-0.1,0.5-0.2,0.7c-0.4,0.6-1.5,1.1-3.3,1.5
				c-1.3,0.3-3.5,0.6-6.6,0.9c-1.4,0.2-2.4,0.3-3.1,0.4c0.1,3.9,0.3,6.8,0.7,8.6c0,0.2,0,0.3-0.1,0.4c-0.1,0.1-0.2,0.2-0.4,0.2
				c-0.3,0-0.4-0.1-0.5-0.4c-0.1-0.4-0.2-1.5-0.4-3.1c-0.2-1.9-0.3-3.6-0.4-5c-0.6,0.3-1.1,0.5-1.4,0.5c-0.5,0-0.8-0.3-0.8-0.8
				c0-0.1,0-0.2,0-0.2c0.1-0.5,0.8-0.8,2.1-1c0-1.4,0.1-2.2,0.4-2.4c0.1,0,0.2-0.1,0.2-0.1c0.3,0,0.5,0.2,0.5,0.5c0,0.1,0,0.1,0,0.2
				c-0.1,0.2-0.1,0.7-0.1,1.6c0.7-0.1,1.7-0.2,3-0.4c2.4-0.3,4.1-0.5,5.2-0.7c2.8-0.5,4.2-1,4.2-1.6c0-0.3-0.4-0.7-1.2-1.1
				c-0.5-0.3-1-0.5-1.4-0.6c-4-1.3-10.6-2-20-2c-5,0-8.8,0.2-11.3,0.6c0.3,0,0.5,0.2,0.5,0.5c0,0.2-0.1,0.3-0.2,0.4
				c-0.2,0.2-0.6,0.2-1.1,0.2c-0.5,0-0.9-0.1-1.2-0.2c-0.3-0.1-0.5-0.3-0.5-0.6c0-0.3,0.1-0.5,0.4-0.7c0.5-0.3,2-0.6,4.5-0.8
				c2.5-0.2,5.4-0.3,8.7-0.3c4.1,0,7.9,0.2,11.4,0.5c4,0.4,7.1,0.9,9.1,1.6C162.2,15.6,162.9,16,163.5,16.3"/>
			<path fill="#47411C" d="M203,30.7c0.3,0,0.8-0.2,1.5-0.5c0.7-0.4,1.1-0.7,1.1-1c0,0,0-0.1,0-0.1c-0.8-0.8-2-1.3-3.6-1.7
				c-1.2-0.2-2.5-0.4-3.7-0.6c-1.2-0.3-1.7-0.7-1.7-1.4c0-0.9,0.9-1.5,2.7-1.9c1.2-0.3,2.4-0.4,3.7-0.4c0.8,0,1.5,0.1,2.3,0.2
				c1.2,0.2,1.7,0.6,1.7,1.1c0,0.3-0.2,0.5-0.4,0.5c-0.1,0-0.3,0-0.4-0.1c-0.6-0.5-1.6-0.7-3.2-0.7c-1.3,0-2.5,0.1-3.7,0.4
				c-1.2,0.3-1.8,0.6-1.8,1c0,0.2,0.4,0.4,1.1,0.6c0.1,0,0.6,0.1,1.4,0.2c1.5,0.2,2.6,0.4,3.4,0.6c1.3,0.4,2.2,0.9,3,1.7
				c0.2,0.2,0.4,0.5,0.4,0.8c0,0.6-0.5,1.1-1.4,1.7c-0.8,0.5-1.6,0.8-2.2,0.8c-0.4,0-0.8-0.1-1.1-0.3c-0.4-0.2-0.6-0.5-0.6-0.9
				c0-0.2,0.1-0.4,0.2-0.7c0.1-0.3,0.3-0.4,0.5-0.4c0.3,0,0.4,0.1,0.4,0.3c0,0.1,0,0.2-0.1,0.3c0,0.2-0.1,0.3-0.1,0.4
				C202.1,30.6,202.4,30.7,203,30.7"/>
			<path fill="#47411C" d="M202.2,30l-0.8-0.2c2.2-3.6,14.3-8.9,16.9-9.1c0.2,0,0.6-0.1,0.5,0.2c0,0.1-0.2,0.1-0.3,0.2
				c-0.1,0.1-0.1,0.2-0.3,0.3c-0.2,0.1-0.6,0.1-0.8,0.1c-1.1,0.2-2.2,0.4-3.2,0.8C208,24.7,202.4,28.9,202.2,30"/>
			<path fill="#47411C" d="M187.4,24.2c0.1-0.4,0.3-0.9,0.6-1.3c0.4-0.5,1.1-0.3,0.9,0.4c-0.1,0.2-0.1,0.3-0.2,0.5
				c-0.2,0.2-0.4,0.4-0.6,0.6C187.9,24.7,187.3,24.7,187.4,24.2 M196.4,26.4c-0.3,0.3-0.6,0.6-1,0.8c-0.2,0.1-0.5,0.2-0.6,0
				c-0.1-0.1-0.2-0.3-0.1-0.5c0.1-0.5,0.4-1,0.5-1.6c0.1-0.4,0.1-0.9,0-1.3c-0.2-0.5-0.5-0.7-0.9-1.1c-0.1-0.1-0.2-0.2-0.4-0.3
				c-0.2-0.1-0.4,0-0.6,0.1c-0.1,0-0.7,0.4-0.7,0.5c0.1,0.3,0.1,0.4-0.1,0.7c-0.5,0.9-1.3,1.7-2.1,2.3c-0.1,0.1-0.2,0.2-0.2,0.3
				c-0.1-0.1-0.3,0-0.4,0.1c-0.4,0.2-0.9,0.3-1.4,0.2c-0.5-0.1-0.9-0.6-0.9-1.1c0.1-0.5,0.5-0.8,0.8-1.1c0.5-0.5,1-1.1,1.2-1.8
				c0.1-0.2,0.1-0.5,0.1-0.7c0-0.2-0.2-0.5-0.4-0.6c-0.3-0.1-0.7,0.1-1,0.3c-0.9,0.8-1.5,1.8-1.6,3c0,0.2-0.1,0.4-0.2,0.6
				c-0.1,0.1-0.2,0.2-0.3,0.3l-0.4,0.4c-0.1,0.1-0.2,0.2-0.3,0.3c0,0,0,0.1,0,0.1l0,0c-0.1-0.1-0.2,0-0.3,0c-0.3,0-0.5-0.2-0.7-0.5
				c-0.2-0.3-0.2-0.7-0.3-1.1c-0.1-0.4-0.4-0.7-0.8-0.7c-0.2,0-0.3,0.1-0.5,0.1c-1,0.6-1.6,1.7-2.5,2.4c0,0,0,0-0.1,0c0,0,0,0,0,0
				c-0.2-0.1-0.2-0.4-0.2-0.6c0-0.5,0.3-0.9,0.5-1.3c0.2-0.5,0.3-1,0.4-1.5c0-0.2,0.1-0.4,0-0.5c-0.1-0.2-0.4-0.2-0.6-0.2
				c-0.2,0.1-0.4,0.3-0.6,0.4c-1,1.1-2,2.1-3,3.2c-0.1,0.1-0.1,0.2-0.1,0.2c0,0,0,0,0-0.1c-0.3,0.2-0.5,0.4-0.8,0.6
				c-0.2,0.2-0.4,0.3-0.7,0.2c-0.1-0.1-0.2-0.2-0.3-0.4c-0.1-0.5,0.1-1.1,0.2-1.6c0.1-0.5,0.2-1.1,0.4-1.6c0.1-0.5,0.2-0.9,0.4-1.4
				c0.1-0.2,0.1-0.5,0.2-0.7c0-0.1,0.1-0.4,0.2-0.5c0.1-0.1,0.4-0.1,0.6-0.1c0,0,0.1,0,0.1,0c0,0,0-0.1,0-0.1
				c0.1-0.4-0.1-0.8-0.2-1.2c-0.1-0.4,0.3-0.8,0.2-1.2c0-0.1,0-0.1-0.1-0.1c-0.1-0.1-0.2,0-0.3,0.1c-0.4,0.4-0.4,1.2-1,1.5
				c-0.2,0.1-0.5,0.1-0.7,0.1c-0.5,0-0.9,0-1.4,0c-0.3,0-0.9-0.2-1,0.2c0,0.1-0.1,0.5-0.1,0.6c0.1,0.1,0.4,0.1,0.6,0.2
				c0.5,0.1,1,0.1,1.4,0c0.1,0,0.3,0,0.4,0c0.1,0,0.3,0.1,0.3,0.2c0,0.1,0,0.2,0,0.3c-0.2,0.5-0.5,1-0.8,1.4c-0.3,0.5-0.6,0.9-1,1.4
				c-0.5,0.7-1.1,1.2-1.7,1.8c-0.1,0.1-0.2,0.2-0.2,0.3c0,0.1-0.1,0.2,0,0.3c0-0.1-0.1-0.1-0.1-0.2c-0.3,0.3-0.6,0.7-1.1,0.9
				c-0.3,0.1-0.7,0.1-0.7-0.3c-0.1-0.4,0.2-0.8,0.3-1.2c0.2-0.5,0.3-0.8,0.3-1c0-0.4-0.1-0.8-0.2-1.1c-0.1-0.3-0.3-0.5-0.5-0.6
				c0,0-0.1,0-0.1-0.1l0,0l0,0c-0.1-0.1-0.3-0.3-0.4-0.4c-0.1-0.1-0.2-0.1-0.3-0.1c-0.1,0-0.3,0-0.6,0.3c-0.3,0.2-0.4,0.3-0.5,0.4
				l0.1,0.4l0,0.1c-0.5,1.1-1.5,1.8-2.3,2.7c-0.2,0.2-0.3,0.4-0.5,0.5c-0.7,0.3-1.2-0.4-1.2-1c0-0.2,0.2-1.3-0.3-1.2
				c-0.3,0.1-0.5,0.3-0.7,0.5c-0.5,0.4-1,0.8-1.4,1.3c-0.3,0.2-1,1-1.4,0.7c-0.2-0.1-0.2-0.3-0.1-0.5c0.1-0.3,0.4-0.5,0.6-0.7
				c0.3-0.4,0.7-0.8,1-1.1c0.7-0.8,1.4-1.5,2.2-2.1c0.2-0.2,0.7-0.5,0.2-0.7c-0.4-0.1-0.9,0.3-1.2,0.5c-1.1,0.9-2.2,1.8-3.2,2.7
				c-0.3,0.2-0.7,0.4-0.7,0.8c0,0.3,0.2,0.5,0.2,0.7c0,0.3-0.2,0.5-0.3,0.7c-0.1,0.2-0.3,0.5-0.1,0.8c0.1,0.2,0.3,0.2,0.5,0.2
				c0,0,0,0,0.1,0c0.2,0,0.4-0.2,0.6-0.3c0.2-0.2,2.8-2.3,2.7-2.4c0.2,0.2,0.3,0.4,0.4,0.7c0,0.2,0,0.5,0.2,0.7
				c0.2,0.3,0.5,0.4,0.8,0.4c0.9,0,1.6-1,2.2-1.5c0.4-0.4,0.8-0.8,1.2-1.2c0.4-0.4,0.7-0.8,1.2-1.1c0.3-0.2,0.8,0.2,0.9,0.5
				c0.1,0.3,0.2,0.7,0.1,1c-0.1,0.8-0.3,1.7-0.7,2.4c-0.1,0.1-0.1,0.3-0.1,0.4c0.1,0.4,0.6,0.2,0.8,0c1.2-0.7,2.4-1.6,3.4-2.6
				c0.2-0.2,1.5-2,1.7-1.2c0,0.2,0,0.3-0.1,0.5c-0.3,1-0.5,2.1-0.5,3.2c0,0.2,0,0.5,0.2,0.6c0.1,0.1,0.3,0.1,0.5,0
				c0.2-0.1,0.3-0.2,0.4-0.3c0-0.1,0.3-0.3,0.4-0.4c0.2-0.1,0.3-0.3,0.5-0.4c0.3-0.3,0.6-0.5,0.8-0.8c0.5-0.4,0.9-0.9,1.4-1.3
				c0.3-0.3,0.8-1,1.3-0.7c0.3,0.2,0.2,0.6,0.1,0.9c-0.2,0.6-0.4,1.2-0.6,1.8c-0.1,0.4-0.2,0.8-0.2,1.2c0.3,0.1,0.6-0.2,0.9-0.4
				c0.9-0.9,1.7-2,2.8-2.7c0.2-0.1,0.4-0.2,0.5-0.1c0.1,0,0.2,0.1,0.2,0.2c0.2,0.3,0.5,0.6,0.6,0.9c0.2,0.4,0.5,0.8,0.9,0.8
				c0.4,0,0.7-0.5,1.1-0.7c0,0,0,0,0,0c0,0,0,0,0,0c0.1-0.1,0.3-0.3,0.5-0.4c0.7-0.4,0.8,0.7,1.1,1c0.3,0.3,0.7,0.4,1.1,0.3
				c0.9-0.1,1.7-0.6,2.3-1.3c0.7-0.7,1.5-1.5,2.2-2.2c0.1-0.1,0.2-0.2,0.4-0.3c0.5-0.3,1,0.3,1.1,0.8c0.1,0.5,0,1-0.1,1.5
				c-0.1,0.6-0.4,1.2-0.6,1.8c-0.1,0.1-0.1,0.3,0,0.4c0.2,0.2,0.6,0,0.8-0.1c0.5-0.3,1-0.6,1.4-0.9c0.2-0.2,0.5-0.3,0.7-0.5
				c0.1-0.1,0.3-0.3,0.4-0.4C196.7,26.4,196.5,26.6,196.4,26.4"/>
		</g>
	</g>
	<g>
		<g>
			<path fill="#47411C" d="M28.5,23.5v-8.3c0.4-1,1.1-1.9,2-2.5c0.9-0.6,1.9-1,2.9-1.1c1-0.2,2.1-0.1,3.1,0.2c1,0.3,1.8,0.8,2.5,1.4
				c0.5,0.5,0.9,1.2,1.1,2.1c0.2,0.9,0.3,1.8,0.2,2.7c-0.1,0.9-0.3,1.8-0.6,2.6c-0.3,0.8-0.7,1.5-1.2,2c-0.9,1-2.1,1.6-3.5,1.9
				c-1.4,0.3-2.8,0.4-4,0.5c-0.5,0-1,0.1-1.4,0.1h-1.2V23.5z M24.1,23.8v8.3c-0.4,1-1.1,1.9-2,2.5c-0.9,0.6-1.9,1-2.9,1.1
				c-1,0.2-2.1,0.1-3.1-0.2c-1-0.3-1.8-0.8-2.5-1.4c-0.5-0.5-0.9-1.2-1.1-2.1c-0.2-0.9-0.3-1.8-0.2-2.7c0.1-0.9,0.3-1.8,0.6-2.6
				c0.3-0.8,0.7-1.5,1.2-2c0.9-1,2.1-1.6,3.5-1.9c1.4-0.3,2.8-0.4,4-0.5c0.5,0,1-0.1,1.4-0.1h1.2V23.8z M24.2,20.4
				c-0.4,0-0.7-0.1-1-0.1c-0.3,0-0.5,0-0.7,0c-1.1,0.1-2.2,0.2-3.2,0.3c-1.1,0.1-2.1,0.3-3.2,0.6c-2.1,0.6-4,1.6-5.5,2.8
				c-1.5,1.3-2.4,3.1-2.5,5.5C8,31.3,8.1,32.8,8.6,34c0.5,1.2,1.2,2.1,2.1,2.7c0.9,0.7,1.9,1.1,3.1,1.3c1.2,0.2,2.4,0.2,3.6,0.1
				c1.3-0.1,2.5-0.4,3.6-0.9c1.2-0.5,2.2-1.2,3-2v0c0.1-0.1,0.1-0.2,0.2-0.3l0.1-0.1c0,0.3,0,0.7,0,1c0,1.1-0.1,2.1-0.1,3
				c-0.1,1.1,0,2.2,0.3,3.1l4.1-3.5c-0.1-0.8-0.1-1.6-0.1-2.6c0-1.1,0-2.2,0-3.4v-3.4h0v-1.8h0c0-0.2,0-0.3,0-0.5
				c0.4,0,0.7,0.1,1,0.1c0.3,0,0.5,0,0.7,0c1.1-0.1,2.2-0.2,3.2-0.3c1.1-0.1,2.1-0.3,3.2-0.6c2.1-0.6,4-1.6,5.5-2.8
				c1.6-1.3,2.4-3.1,2.5-5.5c0.1-1.8-0.1-3.3-0.6-4.5c-0.5-1.2-1.2-2.1-2.1-2.7C41,10,40,9.5,38.8,9.3c-1.2-0.2-2.4-0.2-3.6-0.1
				c-1.3,0.1-2.5,0.4-3.6,0.9c-0.4,0.2-0.7,0.4-1,0.5c-1.1,0.8-1.8,1.2-2.7,2.5c0,0,0,0.1-0.1,0.1c0,0,0,0,0,0
				c-0.1,0.2-0.3,0.4-0.5,0.7c-0.3-0.5-0.6-1-1-1.4c-1.1-1.2-2.6-2.1-4.4-2.7c-1.8-0.6-3.6-0.8-5.5-0.8c-1.9,0.1-3.6,0.5-5.2,1.2
				c-1.6,0.7-2.8,1.7-3.5,3l3.7,2.8c0.1-1.6,0.7-2.9,1.7-3.9c1-1,2.2-1.6,3.5-1.6c2,0,3.5,0.3,4.6,0.9c1.1,0.6,1.9,1.3,2.4,2.3
				c0.5,0.9,0.7,2,0.8,3.1c0,0.5,0,1.1,0,1.6c0,0.5,0,1.1,0,1.6C24.2,20.2,24.2,20.3,24.2,20.4"/>
		</g>
		<g>
			<g>
				<defs>
					<path id="SVGID_1_" d="M39.6,25.8c0.9,1,1.7,2.4,1.9,3.9c0.2,1.7-0.1,3.1-0.9,4.3c-4.4,4.9-11.1-0.7-11.7-1.7
						c-0.1,1.1-0.1,1.2-0.1,2.1c1.2,1.1,7.1,5.2,13.7,1.6c4.1-2.6,3.8-7.3,0.3-12.4C42,24.6,40.4,25.4,39.6,25.8"/>
				</defs>
				<use xlink:href="#SVGID_1_"  overflow="visible" fill="#9E7B2D"/>
				<clipPath id="SVGID_2_">
					<use xlink:href="#SVGID_1_"  overflow="visible"/>
				</clipPath>
			</g>
			<g>
				<defs>
					<path id="SVGID_3_" d="M9.7,23.7c2-1.5,3.4-2.2,4.2-2.5c-1.3-0.7-2.3-2.7-2.6-4.4c-1.6-1.1-3.8-2.9-3.8-2.9S5.5,18.2,9.7,23.7"
						/>
				</defs>
				<use xlink:href="#SVGID_3_"  overflow="visible" fill="#9E7B2D"/>
				<clipPath id="SVGID_4_">
					<use xlink:href="#SVGID_3_"  overflow="visible"/>
				</clipPath>
			</g>
		</g>
	</g>
</g>
</svg>
