<?xml version="1.0" encoding="utf-8"?>
<!-- Generator: Adobe Illustrator 18.1.1, SVG Export Plug-In . SVG Version: 6.00 Build 0)  -->
<svg version="1.1"
	 id="svg2" xmlns:dc="http://purl.org/dc/elements/1.1/" xmlns:cc="http://creativecommons.org/ns#" xmlns:rdf="http://www.w3.org/1999/02/22-rdf-syntax-ns#" xmlns:svg="http://www.w3.org/2000/svg" xmlns:sodipodi="http://sodipodi.sourceforge.net/DTD/sodipodi-0.dtd" xmlns:inkscape="http://www.inkscape.org/namespaces/inkscape" sodipodi:docname="AP-icon.svg" inkscape:version="0.91 r13725"
	 xmlns="http://www.w3.org/2000/svg" xmlns:xlink="http://www.w3.org/1999/xlink" x="0px" y="0px" viewBox="-222 345.9 150 150"
	 enable-background="new -222 345.9 150 150" xml:space="preserve">
<sodipodi:namedview  id="base" units="px" showgrid="false" inkscape:cy="97.882795" inkscape:cx="40.448002" inkscape:zoom="2.5143964" borderopacity="1.0" bordercolor="#666666" pagecolor="#ffffff" inkscape:window-maximized="1" inkscape:pageshadow="2" inkscape:pageopacity="0.0" inkscape:window-x="1272" inkscape:document-units="px" inkscape:window-height="837" inkscape:window-width="1600" inkscape:window-y="-8" inkscape:current-layer="layer1">
	</sodipodi:namedview>
<g id="layer1" transform="translate(0,-902.36216)" inkscape:label="Layer 1" inkscape:groupmode="layer">
	<g id="g3341" transform="matrix(1.2885028,0,0,1.3434062,-8.6001411,287.48024)">
		<g id="g3343">
			<path id="SVGID_1_" inkscape:connector-curvature="0" fill="#A3852F" d="M-71.2,775.2c2.6,2.8,4.6,6.4,5.2,10.4
				c0.4,4.6-0.4,8.4-2.6,11.4c-11.8,13-29.7-1.6-31.3-4.4c-0.4,3-0.4,3.2-0.4,5.6c3.2,3,19,14,36.9,4.2c11-7,10-19.6,0.8-33.3
				C-64.9,771.8-69.2,774-71.2,775.2"/>
		</g>
	</g>
	<g id="g3346" transform="matrix(1.2885028,0,0,1.3434062,-8.6001411,287.48024)">
		<g id="g3348">
			<path id="SVGID_4_" inkscape:connector-curvature="0" fill="#A3852F" d="M-151.5,769.4c5.4-4,9-5.8,11.2-6.4c-3.6-1.8-6-7-7-11.8
				c-4.2-3-10.2-7.8-10.2-7.8S-163,754.7-151.5,769.4"/>
		</g>
	</g>
	<path id="path3383" inkscape:connector-curvature="0" fill="#46411B" d="M-138.7,1320.3v-30c1.5-3.8,3.9-6.7,7-8.9
		s6.4-3.8,10.3-4.3c3.6-0.5,7.2-0.3,10.6,0.5c3.6,1.1,6.2,3,8.5,5.1c1.8,1.9,2.8,4.6,3.9,7.5c0.8,3,1,6.4,0.8,9.4
		c-0.3,3.5-0.8,6.4-1.8,9.4s-2.3,5.4-4.1,7c-3.4,3.5-7.2,5.6-12.1,6.7c-4.9,1.1-9.5,1.6-13.9,1.6c-1.8,0-3.6,0.3-4.9,0.3h-4.1
		C-138.7,1325.4-138.7,1320.3-138.7,1320.3L-138.7,1320.3z M-153.9,1321.3v29.8c-1.5,3.8-3.9,6.7-7,8.9c-3.4,2.1-6.4,3.8-10.3,4.3
		c-3.6,0.5-7.2,0.3-10.6-0.5c-3.6-1.1-6.2-3-8.5-5.1c-1.8-1.9-2.8-4.6-3.9-7.5c-0.8-3-1-6.4-0.8-9.4c0.3-3.5,0.8-6.4,1.8-9.4
		c1-3,2.3-5.4,4.1-7c3.4-3.5,7.2-5.6,12.1-6.7c4.9-1.1,9.5-1.6,13.9-1.6c1.8-0.3,3.6-0.3,4.9-0.3h4.1
		C-153.9,1316.5-153.9,1321.3-153.9,1321.3L-153.9,1321.3z M-153.7,1308.8c-1.3-0.3-2.3-0.3-3.6-0.3c-1,0-1.8,0-2.1,0
		c-3.9,0.3-7.5,0.5-11.1,1.1c-3.9,0.3-7.2,1.1-11.1,2.1c-7.2,2.1-13.7,5.6-19.1,10.2c-5.4,4.6-8.2,11.3-8.5,19.6
		c-0.5,6.4,0.3,12.1,1.8,15.9c1.5,4.3,4.1,7.3,7.2,9.9c2.8,2.1,6.7,4,10.8,4.6c4.1,0.8,8,0.8,12.4,0.3c4.4-0.3,8.5-1.3,12.4-3.5
		c4.1-1.9,7.5-4.3,10.6-7l0,0c0.3-0.3,0.5-0.8,0.5-0.8l0.3-0.3c0,1.1,0,2.4,0,3.8c0,4-0.3,7.5-0.5,10.7c-0.3,4,0.3,7.8,1,11.3
		l13.9-12.6c-0.3-3-0.3-5.9-0.3-9.4c0-4,0-8.1,0-12.4V1340l0,0v-6.4l0,0c0-0.5,0-1.1,0-1.6c1.3,0.3,2.3,0.3,3.6,0.3
		c1.3,0,1.8,0,2.1,0c3.9-0.3,7.5-0.5,11.1-1.1c3.9-0.3,7.2-1.1,11.1-2.1c7.2-2.1,13.7-5.6,19.1-10.2c5.4-4.8,8.2-11.3,8.5-19.6
		c0.5-6.4-0.3-12.1-1.8-15.9c-1.5-4.3-4.1-7.3-7.2-9.9c-2.8-2.1-6.7-4-10.8-4.6s-8-0.8-12.4-0.3c-4.4,0.3-8.5,1.3-12.4,3.5
		c-1.3,0.8-2.3,1.6-3.9,2.1c-3.9,3-6.2,4.3-9.5,8.9c0,0,0,0.3-0.3,0.5l0,0c-0.5,0.8-1,1.6-1.5,2.4c-0.8-1.9-2.1-3.8-3.6-5.1
		c-4.1-4.6-9-7.5-15.2-9.4c-6.2-1.9-12.6-3-18.8-3c-6.4,0.3-12.4,1.6-18,4.3c-5.2,2.4-9,6.2-11.9,11l12.6,9.9
		c0.3-5.6,2.1-10.5,5.9-14c3.6-3.8,7.5-5.6,11.9-5.6c6.7,0,12.1,1.1,16,3c3.9,2.1,6.4,4.8,8,8.1c1.5,3.5,2.8,7,2.8,11.3
		c0,1.9,0,4,0,5.9c0,1.9,0,4,0,5.9C-153.7,1308.3-153.4,1308.6-153.7,1308.8"/>
</g>
</svg>
