<?xml version="1.0" encoding="iso-8859-1"?>
<!-- Generator: Adobe Illustrator 19.0.0, SVG Export Plug-In . SVG Version: 6.00 Build 0)  -->
<svg version="1.1" id="Capa_1" xmlns="http://www.w3.org/2000/svg" xmlns:xlink="http://www.w3.org/1999/xlink" x="0px" y="0px"
	 viewBox="0 0 480.002 480.002" style="enable-background:new 0 0 480.002 480.002;" xml:space="preserve">
<g>
	<g>
		<g>
			<path d="M479.472,314.873c0.961-2.506,0.6-5.328-0.96-7.512c-1.507-2.247-4.092-3.526-6.792-3.36l-7.72,0.272v-24.272
				c0-4.418-3.582-8-8-8h-16v-160h16v-16h-16v-56h-16v24h-16v16h16v192h-16c-4.418,0-8,3.582-8,8v26.48l-16,0.552V176.001
				c0-4.418-3.582-8-8-8h-96c-4.418,0-8,3.582-8,8v72h-88c-4.418,0-8,3.582-8,8v58.208l-8,0.272v-127.2l120-120v28.72
				c-13.255,0-24,10.745-24,24s10.745,24,24,24h32v-16h-32c-4.418,0-8-3.582-8-8s3.582-8,8-8h8c4.418,0,8-3.582,8-8v-96
				c0-4.418-3.581-8-8-8c-1.633,0-3.228,0.5-4.568,1.432L132.488,112.001H32c-4.418,0-8,3.582-8,8v199.448l-16.28,0.552
				c-4.415,0.157-7.868,3.863-7.711,8.279c0.037,1.045,0.279,2.073,0.711,3.025l34.856,76.696H0v16h480v-16h-36.352L479.472,314.873
				z M416,288.001h32v16.8l-32,1.104V288.001z M288,184.001h80v64h-80V184.001z M288,264.001h80v43.584l-13.752,0.472L288,310.337
				V264.001z M192,264.001h80v46.888l-80,2.76V264.001z M288,23.313v21.376l-120,120v-44.688c-0.013-4.246-3.359-7.732-7.6-7.92
				L288,23.313z M40,128.001h112v187.032l-112,3.856V128.001z M53.152,408.001l-32.92-72.416l440-15.2l-33.728,87.616H53.152z"/>
			<rect x="56" y="144.001" width="16" height="32"/>
			<rect x="88" y="144.001" width="16" height="32"/>
			<rect x="120" y="144.001" width="16" height="32"/>
			<rect x="48" y="208.001" width="96" height="16"/>
			<rect x="48" y="240.001" width="96" height="16"/>
			<rect x="376" y="336.001" width="16" height="16"/>
			<rect x="408" y="336.001" width="16" height="16"/>
			<rect x="344" y="336.001" width="16" height="16"/>
			<rect x="360" y="432.001" width="104" height="16"/>
			<rect x="280" y="464.001" width="48" height="16"/>
			<rect x="208" y="448.001" width="32" height="16"/>
			<rect y="440.001" width="56" height="16"/>
			<rect x="72" y="440.001" width="16" height="16"/>
		</g>
	</g>
</g>
<g>
</g>
<g>
</g>
<g>
</g>
<g>
</g>
<g>
</g>
<g>
</g>
<g>
</g>
<g>
</g>
<g>
</g>
<g>
</g>
<g>
</g>
<g>
</g>
<g>
</g>
<g>
</g>
<g>
</g>
</svg>
