<svg height="512pt" viewBox="0 0 512 512.09568" width="512pt" xmlns="http://www.w3.org/2000/svg"><path d="m511.484375 295.699219-40.789063-106.035157 10.929688-4.371093c15.035156-6.328125 22.230469-23.527344 16.183594-38.675781-6.046875-15.148438-23.109375-22.664063-38.367188-16.898438l-12.988281 5.203125c-12.03125-13.316406-26.316406-24.414063-42.199219-32.777344-21.082031-11.25-43.601562-19.574219-66.933594-24.746093-15.953124-3.625-32.140624-6.117188-48.445312-7.457032 14.40625-17.328125 12.851562-42.871094-3.546875-58.324218-16.398437-15.453126-41.984375-15.496094-58.429687-.089844-16.445313 15.402344-18.078126 40.9375-3.730469 58.3125-16.265625 1.359375-32.410157 3.886718-48.316407 7.558594-23.34375 5.15625-45.867187 13.503906-66.933593 24.808593-15.902344 8.324219-30.203125 19.402344-42.242188 32.714844l-12.984375-5.195313c-8.289062-3.308593-17.621094-2.742187-25.449218 1.539063-7.828126 4.28125-13.335938 11.832031-15.027344 20.59375-.359375 1.902344-.546875 3.828125-.5625 5.761719-.050782 12.226562 7.441406 23.222656 18.84375 27.648437l10.914062 4.378907-40.800781 106.050781c-.136719.519531-.226563 1.050781-.261719 1.585937-.148437.480469-.2499998.976563-.300781 1.476563v17.066406c0 14.140625 11.460937 25.601563 25.601563 25.601563h59.734374c14.136719 0 25.597657-11.460938 25.597657-25.601563v-17.066406c-.050781-.503907-.152344-1-.296875-1.484375-.039063-.535156-.128906-1.0625-.265625-1.578125l-40.703125-105.8125c.980468-.582031 1.925781-1.230469 2.824218-1.9375 45.460938-35.148438 100.53125-55.652344 157.910157-58.785157v119.96875c-10.191407 3.601563-17.023438 13.21875-17.066407 24.03125v42.664063c0 14.140625 11.460938 25.601563 25.597657 25.601563h3.261719l-17.632813 35.25c-1.769531 3.554687-2.691406 7.472656-2.695313 11.445312v38.636719h-17.066406c-14.136718 0-25.601562 11.460937-25.601562 25.601562v8.53125h-34.132813c-14.136719 0-25.597656 11.460938-25.597656 25.601563v17.066406c0 4.710938 3.820313 8.53125 8.53125 8.53125h256c4.714844 0 8.535156-3.820312 8.535156-8.53125v-17.066406c0-14.140625-11.460937-25.601563-25.601562-25.601563h-34.132813v-8.53125c0-14.140625-11.460937-25.601562-25.601562-25.601562h-17.066406v-38.636719c-.003907-3.976562-.925782-7.894531-2.695313-11.453125l-17.628906-35.242187h3.257812c14.140625 0 25.601563-11.460938 25.601563-25.601563v-42.664063c-.046875-10.8125-6.875-20.429687-17.066406-24.03125v-119.988281c57.398437 3.148438 112.480468 23.683594 157.933593 58.878907.886719.703124 1.816407 1.339843 2.792969 1.914062l-40.699219 105.8125c-.136719.519531-.226562 1.050781-.261719 1.585938-.144531.464843-.246093.941406-.300781 1.425781v17.066406c0 14.140625 11.460938 25.601563 25.601563 25.601563h59.734375c14.136719 0 25.597656-11.460938 25.597656-25.601563v-17.066406c-.050781-.503907-.152344-1-.296875-1.484375-.039062-.535156-.125-1.0625-.265625-1.578125zm-135.96875 190.796875v8.53125h-238.933594v-8.53125c0-4.714844 3.820313-8.535156 8.53125-8.535156h221.867188c4.714843 0 8.535156 3.820312 8.535156 8.535156zm-59.734375-34.132813v8.53125h-119.464844v-8.53125c0-4.714843 3.820313-8.535156 8.53125-8.535156h102.398438c4.714844 0 8.535156 3.820313 8.535156 8.535156zm-42.667969-64.238281v38.636719h-34.132812v-38.636719c0-1.324219.304687-2.632812.898437-3.816406l16.167969-32.332032 16.214844 32.324219c.574219 1.191407.863281 2.5.851562 3.824219zm217.976563-97.894531h-69.015625l34.507812-89.722657zm-235.042969-273.066407c14.140625 0 25.601563 11.460938 25.601563 25.597657 0 14.140625-11.460938 25.601562-25.601563 25.601562-14.136719 0-25.597656-11.460937-25.597656-25.601562 0-14.136719 11.460937-25.597657 25.597656-25.597657zm-200.53125 183.34375 34.507813 89.722657h-69.019532zm38.398437 115.320313c0 4.714844-3.820312 8.535156-8.53125 8.535156h-59.734374c-4.714844 0-8.535157-3.820312-8.535157-8.535156v-8.53125h76.800781zm187.734376 0c0 4.714844-3.820313 8.535156-8.535157 8.535156h-34.132812c-4.710938 0-8.53125-3.820312-8.53125-8.535156v-42.664063c0-4.714843 3.820312-8.535156 8.53125-8.535156h34.132812c4.714844 0 8.535157 3.820313 8.535157 8.535156zm-17.066407-68.265625h-17.066406v-119.253906c2.839844-.078125 5.632813-.214844 8.53125-.214844 2.902344 0 5.683594.15625 8.535156.222656zm8.660157-136.082031h-.230469c-5.546875-.265625-11.167969-.453125-16.964844-.453125-5.972656 0-11.785156.179687-17.476563.4375-95.691406 4.617187-155.5625 45.796875-176.859374 63.28125-2.390626 1.933594-5.640626 2.410156-8.484376 1.238281l-16.441406-6.597656c-4.835937-1.910157-8.027344-6.566407-8.066406-11.765625.015625-.859375.101562-1.714844.265625-2.558594.742187-3.753906 3.117187-6.980469 6.476563-8.808594 3.363281-1.828125 7.359374-2.066406 10.914062-.648437l18.773438 7.511719c3.542968 1.410156 7.597656.300781 9.925781-2.722657 11.238281-13.792969 25.207031-25.113281 41.027343-33.253906 19.707032-10.570313 40.777344-18.371094 62.617188-23.179687 19.917969-4.585938 40.222656-7.3125 60.644531-8.140626 5.507813-.21875 11.019531-.390624 16.683594-.390624 26.03125-.101563 51.988281 2.761718 77.371094 8.53125 21.820312 4.832031 42.875 12.613281 62.59375 23.125 15.804687 8.167968 29.765625 19.496093 41.011719 33.28125 2.328124 3.023437 6.378906 4.136718 9.921874 2.722656l18.773438-7.519532c6.597656-2.632812 14.082031.582032 16.71875 7.179688 2.632812 6.597656-.578125 14.082031-7.175781 16.714844l-16.402344 6.570312c-2.835937 1.160156-6.082031.691406-8.472656-1.226562-22.058594-18.125-81.945313-58.839844-177.144531-63.328125zm221.738281 204.347656c0 4.714844-3.820313 8.535156-8.53125 8.535156h-59.734375c-4.714844 0-8.535156-3.820312-8.535156-8.535156v-8.53125h76.800781zm0 0"/></svg>